<svg width="20" height="20" viewBox="0 0 20 20" fill="none" xmlns="http://www.w3.org/2000/svg">
<path d="M0 3.47894V15.5211C6.66668 20.6443 13.3333 10.3979 20 15.5211V3.47894C13.3333 -1.64426 6.66668 8.60214 0 3.47894Z" fill="#D22F27"/>
<path d="M10.0293 6.8022L10.515 5L10.5553 6.86593L11.4582 5.2326L11.0505 7.05385L12.3183 5.68388L11.4868 7.35495L13.0454 6.32821L11.8381 7.75165L13.5971 7.12747L12.0842 8.22051L13.9414 8.0359L12.211 8.73517L14.0586 9L12.211 9.26484L13.9414 9.9641L12.0842 9.77949L13.5971 10.8725L11.8381 10.2484L13.0454 11.6718L11.4868 10.6451L12.3183 12.3161L11.0505 10.9462L11.4582 12.7674L10.5553 11.1341L10.515 13L10.0293 11.1978L9.54359 13L9.5033 11.1341L8.60037 12.7674L9.00806 10.9462L7.74029 12.3161L8.57179 10.6451L7.01319 11.6718L8.22051 10.2484L6.46154 10.8725L7.97436 9.77949L6.11722 9.9641L7.84762 9.26484L6 9L7.84762 8.73517L6.11722 8.0359L7.97436 8.22051L6.46154 7.12747L8.22051 7.75165L7.01319 6.32821L8.57179 7.35495L7.74029 5.68388L9.00806 7.05385L8.60037 5.2326L9.5033 6.86593L9.54359 5L10.0293 6.8022Z" fill="#F1B31C" stroke="#F1B31C" stroke-width="0.3663" stroke-linecap="round" stroke-linejoin="round"/>
<path d="M10.0293 11.1974C11.2431 11.1974 12.2271 10.2134 12.2271 8.99956C12.2271 7.78575 11.2431 6.80176 10.0293 6.80176C8.81549 6.80176 7.8315 7.78575 7.8315 8.99956C7.8315 10.2134 8.81549 11.1974 10.0293 11.1974Z" stroke="#D22F27" stroke-width="0.3663" stroke-linecap="round" stroke-linejoin="round"/>
<path d="M8.03296 8.08496C7.82131 8.54458 7.77498 9.06321 7.90179 9.55306C8.0286 10.0429 8.32077 10.4739 8.72885 10.7731C9.13693 11.0723 9.63585 11.2213 10.1412 11.1949C10.6465 11.1685 11.1272 10.9683 11.5018 10.6282C11.2657 9.89264 10.803 9.25058 10.18 8.7938C9.55697 8.33703 8.80548 8.08893 8.03296 8.08496V8.08496Z" stroke="#D22F27" stroke-width="0.3663" stroke-linecap="round" stroke-linejoin="round"/>
<path d="M12.0256 8.08496C12.2373 8.54458 12.2836 9.06321 12.1568 9.55306C12.03 10.0429 11.7378 10.4739 11.3298 10.7731C10.9217 11.0723 10.4228 11.2213 9.91743 11.1949C9.41212 11.1685 8.93145 10.9683 8.55678 10.6282C8.79293 9.89264 9.25559 9.25058 9.87861 8.7938C10.5016 8.33703 11.2531 8.08893 12.0256 8.08496Z" stroke="#D22F27" stroke-width="0.3663" stroke-linecap="round" stroke-linejoin="round"/>
</svg>
