<svg width="20" height="20" viewBox="0 0 20 20" fill="none" xmlns="http://www.w3.org/2000/svg">
<path d="M0 3.47894V15.5211C6.66668 20.6443 13.3333 10.3979 20 15.5211V3.47894C13.3333 -1.64426 6.66668 8.60214 0 3.47894Z" fill="#61B2E4"/>
<path d="M3 7V14" stroke="#FCEA2B" stroke-linecap="round" stroke-linejoin="round"/>
<path d="M12.6476 6.01787L11.7255 7.10532L13.0708 6.62851L11.9134 7.46385L13.334 7.32388L12.0112 7.85921L13.424 8.06099L12.0112 8.26276L13.334 8.79809L11.9134 8.65771L13.0708 9.49305L11.7255 9.01665L12.6476 10.1041L11.4566 9.31951L12.0926 10.5973L11.1227 9.54953L11.4337 10.9423L10.7445 9.69482L10.7138 11.1216L10.3409 9.7423L9.96809 11.1216L9.93739 9.69482L9.24776 10.9423L9.55881 9.54912L8.58882 10.5973L9.22525 9.31951L8.03425 10.1041L8.95635 9.01665L7.61106 9.49305L8.76849 8.65812L7.34748 8.79809L8.67027 8.26276L7.25785 8.06099L8.67027 7.85921L7.34748 7.32388L8.76849 7.46385L7.61106 6.62892L8.95635 7.10532L8.03425 6.01787L9.22525 6.80246L8.58923 5.52428L9.55922 6.57285L9.24817 5.17967L9.93739 6.42674L9.96809 5.00041L10.3405 6.37927L10.7138 5L10.7445 6.42674L11.4341 5.17967L11.1231 6.57285L12.0926 5.52428L11.4562 6.80246L12.6476 6.01787Z" fill="#FCEA2B" stroke="#FCEA2B" stroke-width="0.310547" stroke-linecap="round" stroke-linejoin="round"/>
<path d="M7 10.415C7 10.415 7.94625 12.1033 9.73725 12.3337C10.8701 12.4794 10.3004 12.5998 9.72006 12.7696C9.38281 12.8682 9.03411 13 9.03411 13C9.03411 13 9.57231 12.7872 10.4432 12.7479C11.3044 12.7094 11.0449 12.7197 10.7846 12.662C10.598 12.6206 10.142 12.5818 10.2677 12.5523C11.9388 12.161 13.3074 11.3326 13.677 10.415" stroke="#FCEA2B" stroke-width="0.906707" stroke-linecap="round" stroke-linejoin="round"/>
</svg>
