<svg width="20" height="20" viewBox="0 0 20 20" fill="none" xmlns="http://www.w3.org/2000/svg">
<path d="M0 12.5916V16.8936C0 17.2011 0.194251 17.4698 0.471119 17.5432C6.72975 19.2015 12.9884 15.6968 19.247 17.2025C19.6336 17.2955 20 16.9764 20 16.5493V12.5916C13.3333 10.5423 6.66668 14.6409 0 12.5916V12.5916Z" fill="#FF473E"/>
<path d="M0 7.59158V12.4084C6.66668 14.4577 13.3333 10.3591 20 12.4084V7.59158C13.3333 5.5423 6.66668 9.64085 0 7.59158Z" fill="#0B67B2"/>
<path d="M0 3.40683V7.42632C6.66668 9.41359 13.3333 5.43905 20 7.42632V3.07295C20 2.77476 19.8057 2.51416 19.5289 2.44301C13.2702 0.834824 7.01161 4.23351 0.75298 2.7734C0.366443 2.68326 0 2.99264 0 3.40683Z" fill="white"/>
</svg>
