<svg width="29" height="29" viewBox="0 0 29 29" fill="none" xmlns="http://www.w3.org/2000/svg">
<circle cx="14.5" cy="14.5" r="14" stroke="#0B7DFD"/>
<path d="M16.7071 9.29289C16.3166 8.90237 15.6834 8.90237 15.2929 9.29289C14.9024 9.68342 14.9024 10.3166 15.2929 10.7071L16.7071 9.29289ZM20 14L20.7071 14.7071C21.0976 14.3166 21.0976 13.6834 20.7071 13.2929L20 14ZM15.2929 17.2929C14.9024 17.6834 14.9024 18.3166 15.2929 18.7071C15.6834 19.0976 16.3166 19.0976 16.7071 18.7071L15.2929 17.2929ZM15.2929 10.7071L19.2929 14.7071L20.7071 13.2929L16.7071 9.29289L15.2929 10.7071ZM19.2929 13.2929L15.2929 17.2929L16.7071 18.7071L20.7071 14.7071L19.2929 13.2929Z" fill="#0B7DFD"/>
<path d="M10.7071 9.29289C10.3166 8.90237 9.68342 8.90237 9.29289 9.29289C8.90237 9.68342 8.90237 10.3166 9.29289 10.7071L10.7071 9.29289ZM14 14L14.7071 14.7071C15.0976 14.3166 15.0976 13.6834 14.7071 13.2929L14 14ZM9.29289 17.2929C8.90237 17.6834 8.90237 18.3166 9.29289 18.7071C9.68342 19.0976 10.3166 19.0976 10.7071 18.7071L9.29289 17.2929ZM9.29289 10.7071L13.2929 14.7071L14.7071 13.2929L10.7071 9.29289L9.29289 10.7071ZM13.2929 13.2929L9.29289 17.2929L10.7071 18.7071L14.7071 14.7071L13.2929 13.2929Z" fill="#0B7DFD"/>
</svg>
