<svg width="54" height="54" viewBox="0 0 54 54" fill="none" xmlns="http://www.w3.org/2000/svg">
<path d="M27 45H25.75C25.75 45.5508 26.1106 46.0367 26.6378 46.1964C27.165 46.356 27.7345 46.1517 28.0401 45.6934L27 45ZM29.4962 41.2558L30.5362 41.9491H30.5362L29.4962 41.2558ZM45 10H33.75V12.5H45V10ZM25.75 18V45H28.25V18H25.75ZM48.5 36V13.5H46V36H48.5ZM28.0401 45.6934L30.5362 41.9491L28.4561 40.5624L25.9599 44.3066L28.0401 45.6934ZM35.1125 39.5H45V37H35.1125V39.5ZM30.5362 41.9491C31.5563 40.4191 33.2735 39.5 35.1125 39.5V37C32.4377 37 29.9398 38.3368 28.4561 40.5624L30.5362 41.9491ZM46 36C46 36.5523 45.5523 37 45 37V39.5C46.933 39.5 48.5 37.933 48.5 36H46ZM33.75 10C29.3317 10 25.75 13.5817 25.75 18H28.25C28.25 14.9624 30.7124 12.5 33.75 12.5V10ZM45 12.5C45.5523 12.5 46 12.9477 46 13.5H48.5C48.5 11.567 46.933 10 45 10V12.5Z" fill="#0B7DFD"/>
<path d="M27 45L25.9599 45.6934C26.2655 46.1517 26.835 46.356 27.3622 46.1964C27.8894 46.0367 28.25 45.5508 28.25 45H27ZM24.5038 41.2558L23.4638 41.9491L24.5038 41.2558ZM9 12.5H20.25V10H9V12.5ZM25.75 18V45H28.25V18H25.75ZM8 36V13.5H5.5V36H8ZM28.0401 44.3066L25.5439 40.5624L23.4638 41.9491L25.9599 45.6934L28.0401 44.3066ZM18.8875 37H9V39.5H18.8875V37ZM25.5439 40.5624C24.0602 38.3368 21.5623 37 18.8875 37V39.5C20.7265 39.5 22.4437 40.4191 23.4638 41.9491L25.5439 40.5624ZM5.5 36C5.5 37.933 7.067 39.5 9 39.5V37C8.44772 37 8 36.5523 8 36H5.5ZM20.25 12.5C23.2876 12.5 25.75 14.9624 25.75 18H28.25C28.25 13.5817 24.6683 10 20.25 10V12.5ZM9 10C7.067 10 5.5 11.567 5.5 13.5H8C8 12.9477 8.44771 12.5 9 12.5V10Z" fill="#0B7DFD"/>
</svg>
