<svg width="55" height="55" viewBox="0 0 55 55" fill="none" xmlns="http://www.w3.org/2000/svg">
<path d="M16.0417 45.8334C16.0417 42.0364 21.1717 38.9584 27.5 38.9584C33.8283 38.9584 38.9583 42.0364 38.9583 45.8334" stroke="#0B7DFD" stroke-width="2.55814" stroke-linecap="round" stroke-linejoin="round"/>
<path d="M41.25 32.6552C45.2969 33.716 48.125 36.1389 48.125 38.9581" stroke="#0B7DFD" stroke-width="2.55814" stroke-linecap="round" stroke-linejoin="round"/>
<path d="M13.75 32.6552C9.70313 33.716 6.875 36.1389 6.875 38.9581" stroke="#0B7DFD" stroke-width="2.55814" stroke-linecap="round" stroke-linejoin="round"/>
<path d="M27.5 32.0834C31.297 32.0834 34.375 29.0053 34.375 25.2084C34.375 21.4114 31.297 18.3334 27.5 18.3334C23.703 18.3334 20.625 21.4114 20.625 25.2084C20.625 29.0053 23.703 32.0834 27.5 32.0834Z" stroke="#0B7DFD" stroke-width="2.55814" stroke-linecap="round" stroke-linejoin="round"/>
<path d="M41.25 23.4578C42.6565 22.1989 43.5417 20.3695 43.5417 18.3334C43.5417 14.5364 40.4636 11.4584 36.6667 11.4584C34.9059 11.4584 33.2997 12.1203 32.0833 13.209" stroke="#0B7DFD" stroke-width="2.55814" stroke-linecap="round" stroke-linejoin="round"/>
<path d="M13.75 23.4578C12.3435 22.1989 11.4583 20.3695 11.4583 18.3334C11.4583 14.5364 14.5364 11.4584 18.3333 11.4584C20.0942 11.4584 21.7004 12.1203 22.9167 13.209" stroke="#0B7DFD" stroke-width="2.55814" stroke-linecap="round" stroke-linejoin="round"/>
</svg>
