<svg width="23" height="23" viewBox="0 0 23 23" fill="none" xmlns="http://www.w3.org/2000/svg">
<path d="M11.7245 -0.000915527C14.849 -0.000915527 15.2389 0.0105844 16.4648 0.0680844C17.6895 0.125584 18.5233 0.317635 19.257 0.602835C20.016 0.894935 20.6554 1.29053 21.2948 1.92878C21.8796 2.50367 22.332 3.19906 22.6207 3.96658C22.9048 4.69913 23.098 5.53403 23.1555 6.75878C23.2095 7.98468 23.2245 8.37454 23.2245 11.4991C23.2245 14.6236 23.213 15.0135 23.1555 16.2394C23.098 17.4641 22.9048 18.2979 22.6207 19.0316C22.3329 19.7995 21.8803 20.4951 21.2948 21.0694C20.7197 21.654 20.0244 22.1064 19.257 22.3953C18.5244 22.6794 17.6895 22.8726 16.4648 22.9301C15.2389 22.9841 14.849 22.9991 11.7245 22.9991C8.59994 22.9991 8.21009 22.9876 6.98419 22.9301C5.75944 22.8726 4.92569 22.6794 4.19199 22.3953C3.42416 22.1072 2.72864 21.6547 2.15419 21.0694C1.5693 20.4946 1.11681 19.7992 0.828237 19.0316C0.543037 18.299 0.350987 17.4641 0.293487 16.2394C0.239437 15.0135 0.224487 14.6236 0.224487 11.4991C0.224487 8.37454 0.235987 7.98468 0.293487 6.75878C0.350987 5.53288 0.543037 4.70028 0.828237 3.96658C1.11601 3.19859 1.56861 2.503 2.15419 1.92878C2.72881 1.3437 3.42428 0.891173 4.19199 0.602835C4.92569 0.317635 5.75829 0.125584 6.98419 0.0680844C8.21009 0.0140344 8.59994 -0.000915527 11.7245 -0.000915527ZM11.7245 5.74908C10.1995 5.74908 8.73696 6.35489 7.65862 7.43322C6.58029 8.51156 5.97449 9.97409 5.97449 11.4991C5.97449 13.0241 6.58029 14.4866 7.65862 15.5649C8.73696 16.6433 10.1995 17.2491 11.7245 17.2491C13.2495 17.2491 14.712 16.6433 15.7904 15.5649C16.8687 14.4866 17.4745 13.0241 17.4745 11.4991C17.4745 9.97409 16.8687 8.51156 15.7904 7.43322C14.712 6.35489 13.2495 5.74908 11.7245 5.74908V5.74908ZM19.1995 5.46158C19.1995 5.08034 19.048 4.7147 18.7785 4.44512C18.5089 4.17554 18.1432 4.02408 17.762 4.02408C17.3807 4.02408 17.0151 4.17554 16.7455 4.44512C16.4759 4.7147 16.3245 5.08034 16.3245 5.46158C16.3245 5.84283 16.4759 6.20847 16.7455 6.47805C17.0151 6.74763 17.3807 6.89909 17.762 6.89909C18.1432 6.89909 18.5089 6.74763 18.7785 6.47805C19.048 6.20847 19.1995 5.84283 19.1995 5.46158ZM11.7245 8.04909C12.6395 8.04909 13.517 8.41257 14.164 9.05957C14.811 9.70657 15.1745 10.5841 15.1745 11.4991C15.1745 12.4141 14.811 13.2916 14.164 13.9386C13.517 14.5856 12.6395 14.9491 11.7245 14.9491C10.8095 14.9491 9.93197 14.5856 9.28497 13.9386C8.63797 13.2916 8.27449 12.4141 8.27449 11.4991C8.27449 10.5841 8.63797 9.70657 9.28497 9.05957C9.93197 8.41257 10.8095 8.04909 11.7245 8.04909V8.04909Z" fill="url(#paint0_linear_686_912)"/>
<defs>
<linearGradient id="paint0_linear_686_912" x1="28" y1="-4" x2="-3.21847e-07" y2="23" gradientUnits="userSpaceOnUse">
<stop stop-color="#481BA9"/>
<stop offset="0.598958" stop-color="#C13584"/>
<stop offset="1" stop-color="#FFF500"/>
</linearGradient>
</defs>
</svg>
