<svg width="23" height="23" viewBox="0 0 23 23" fill="none" xmlns="http://www.w3.org/2000/svg">
<path d="M12.0089 0.0194062C13.2631 0 14.5101 0.0115 15.7557 0C15.8312 1.46697 16.3588 2.96125 17.4326 3.99841C18.5042 5.06144 20.0201 5.54803 21.4949 5.71263V9.57159C20.1128 9.52631 18.7242 9.23881 17.4699 8.64369C16.9237 8.39644 16.4148 8.07803 15.9167 7.75244C15.9103 10.5527 15.9282 13.3493 15.8988 16.1381C15.824 17.4778 15.382 18.8111 14.6029 19.9151C13.3494 21.753 11.1737 22.9511 8.93911 22.9885C7.56845 23.0668 6.19923 22.6931 5.03126 22.0045C3.09567 20.8632 1.73364 18.7738 1.53526 16.5312C1.51027 16.0563 1.50644 15.5805 1.52376 15.1053C1.69626 13.2818 2.59829 11.5374 3.99842 10.3507C5.58542 8.96856 7.80851 8.31019 9.89001 8.69975C9.90942 10.1193 9.85264 11.5374 9.85264 12.9569C8.90173 12.6493 7.79054 12.7355 6.95967 13.3127C6.35178 13.7131 5.8924 14.3023 5.65226 14.9895C5.45389 15.4754 5.51067 16.0152 5.52217 16.5312C5.75001 18.1039 7.26226 19.4257 8.87657 19.2826C9.94679 19.2711 10.9724 18.6501 11.5302 17.7409C11.7106 17.4225 11.9126 17.0969 11.9234 16.7224C12.0175 15.0082 11.9801 13.3012 11.9916 11.587C11.9995 7.72369 11.9801 3.87119 12.0096 0.020125L12.0089 0.0194062Z" fill="black"/>
</svg>
