<svg width="23" height="16" viewBox="0 0 23 16" fill="none" xmlns="http://www.w3.org/2000/svg">
<path d="M17.5806 0.414858H4.60863C2.06249 0.414858 0 2.43296 0 4.92287V11.2664C0 13.7563 2.0636 15.7755 4.60863 15.7755H17.5806C20.1268 15.7755 22.1892 13.7563 22.1892 11.2664V4.92287C22.1892 2.43296 20.1256 0.413757 17.5806 0.413757V0.414858ZM14.4641 8.40259L8.39671 11.2345C8.3597 11.2522 8.31879 11.2602 8.27778 11.258C8.23676 11.2558 8.19699 11.2434 8.16215 11.2218C8.1273 11.2003 8.09853 11.1704 8.0785 11.135C8.05847 11.0995 8.04784 11.0596 8.04759 11.019V5.18022C8.04833 5.13939 8.05951 5.09941 8.08008 5.064C8.10065 5.02859 8.12995 4.99891 8.16525 4.97773C8.20054 4.95654 8.24068 4.94453 8.28193 4.94282C8.32318 4.94112 8.3642 4.94976 8.40116 4.96796L14.4696 7.97587C14.5101 7.99581 14.544 8.02662 14.5675 8.06476C14.591 8.1029 14.6032 8.14683 14.6026 8.1915C14.602 8.23618 14.5887 8.27978 14.5642 8.31731C14.5397 8.35485 14.505 8.38478 14.4641 8.40369V8.40259Z" fill="black"/>
</svg>
